<svg height="511pt" viewBox="0 0 511.99973 511" width="511pt" xmlns="http://www.w3.org/2000/svg"><path d="m268.035156 85.261719h-36.699218v-30.246094h74.605468l-6.210937 11.410156c-6.316407 11.609375-18.476563 18.835938-31.695313 18.835938zm0 0" fill="#607d8b"/><path d="m461.539062 47.515625h-225.707031c-4.144531 0-7.5 3.355469-7.5 7.5s3.355469 7.5 7.5 7.5h225.707031c4.140626 0 7.5-3.355469 7.5-7.5s-3.359374-7.5-7.5-7.5zm0 0" fill="#81d4fa"/><path d="m333.519531 468.476562h-15.433593l-19.136719-133.347656c-.15625-1.066406-.421875-2.117187-.796875-3.128906l-49.539063-133.074219c-2.914062-7.828125-11.621093-11.808593-19.449219-8.898437-7.824218 2.914062-11.808593 11.621094-8.894531 19.449218l48.972657 131.554688 20.769531 144.714844c1.070312 7.445312 7.449219 12.972656 14.96875 12.972656h28.539062c8.351563 0 15.121094-6.769531 15.121094-15.121094 0-8.351562-6.773437-15.121094-15.121094-15.121094zm0 0" fill="#546e7a"/><path d="m230.464844 336.417969-3.367188-119.445313c-.289062-8.347656-7.296875-14.851562-15.636718-14.589844-8.347657.289063-14.875 7.289063-14.589844 15.636719l3.296875 117.304688-36.457031 144.574219c-1.140626 4.523437-.132813 9.316406 2.734374 12.992187 2.863282 3.679687 7.265626 5.828125 11.929688 5.828125h28.535156c8.351563 0 15.121094-6.769531 15.121094-15.121094 0-8.351562-6.769531-15.121094-15.121094-15.121094h-9.128906l32.234375-127.835937c.347656-1.378906.5-2.800781.449219-4.222656zm0 0" fill="#455a64"/><path d="m253.769531 25.703125c0 13.921875-11.285156 25.203125-25.203125 25.203125-13.921875 0-25.203125-11.28125-25.203125-25.203125 0-13.917969 11.28125-25.203125 25.203125-25.203125 13.917969 0 25.203125 11.285156 25.203125 25.203125zm0 0" fill="#ffab91"/><path d="m254.351562 222.292969h-54.488281c-1.65625 0-3-1.34375-3-3v-138.140625c0-16.703125 13.539063-30.246094 30.246094-30.246094 16.703125 0 30.242187 13.542969 30.242187 30.246094v138.140625c0 1.65625-1.34375 3-3 3zm0 0" fill="#f06292"/><path d="m227.105469 50.90625c-5.507813 0-10.671875 1.480469-15.121094 4.058594 9.039063 5.230468 15.121094 14.996094 15.121094 26.1875v141.140625h27.246093c1.65625 0 3-1.34375 3-3v-138.140625c0-16.703125-13.539062-30.246094-30.246093-30.246094zm0 0" fill="#ec407a"/><path d="m511.734375 489.03125c-1.085937-3.996094-5.203125-6.355469-9.203125-5.269531l-17.621094 4.789062c-21.839844 5.9375-44.390625 8.945313-67.023437 8.945313h-410.386719c-4.144531 0-7.5 3.359375-7.5 7.5 0 4.144531 3.355469 7.5 7.5 7.5h410.386719c23.960937 0 47.835937-3.1875 70.960937-9.472656l17.617188-4.789063c4-1.085937 6.355468-5.207031 5.269531-9.203125zm0 0" fill="#f06292"/><path d="m310.984375 137.375c-2.875 0-5.761719-.816406-8.296875-2.484375l-73.519531-48.28125c-6.980469-4.582031-8.925781-13.960937-4.339844-20.941406 4.585937-6.976563 13.960937-8.921875 20.941406-4.339844l63.519531 41.71875 50.792969-48.007813c6.070313-5.738281 15.636719-5.464843 21.375.601563 5.738281 6.070313 5.46875 15.640625-.601562 21.378906l-59.480469 56.222657c-2.886719 2.730468-6.628906 4.132812-10.390625 4.132812zm0 0" fill="#fdd835"/></svg>