<svg height="480pt" viewBox="0 -8 480 480" width="480pt" xmlns="http://www.w3.org/2000/svg"><path d="m0 345.601562 240-345.601562 156.734375 256 35.265625 57.601562 48 78.398438v72h-476.414062zm0 0" fill="#00bbd6"/><path d="m154.753906 122.753906 29.246094 29.246094 32-32 32 32 32-32 32 32 13.0625-13.0625-85.0625-138.9375zm0 0" fill="#e6e6e6"/><path d="m376.664062 464-200.664062-248-88 112-64-64-24 32v168zm0 0" fill="#5bc9e1"/><path d="m328 400h16v64h-16zm0 0" fill="#754c24"/><path d="m392 383.113281h16v64h-16zm0 0" fill="#754c24"/><path d="m368 379.550781c0 15.710938-12.738281 28.449219-28.449219 28.449219h-7.101562c-15.710938 0-28.449219-12.738281-28.449219-28.449219v-78.214843c0-15.710938 12.738281-28.449219 28.449219-28.449219h7.101562c15.710938 0 28.449219 12.738281 28.449219 28.449219zm0 0" fill="#39b54a"/><path d="m424 382.441406c-5.351562 5.550782-12.738281 8.679688-20.449219 8.671875h-7.101562c-15.710938 0-28.449219-12.738281-28.449219-28.449219v-78.214843c0-15.710938 12.738281-28.449219 28.449219-28.449219h7.101562c15.710938 0 28.449219 12.738281 28.449219 28.449219v78.214843c.011719 7.382813-2.859375 14.476563-8 19.777344" fill="#009245"/></svg>