<svg height="512pt" viewBox="0 0 512.00008 512" width="512pt" xmlns="http://www.w3.org/2000/svg"><path d="m1.667969 508.019531 147.667969-25.015625c5.941406-1.007812 11.945312-1.632812 17.96875-1.871094l105.46875-4.183593c24.070312-.957031 47.980468 4.269531 69.457031 15.175781l31.679687 16.085938c1.875.949218 1.199219 3.78125-.90625 3.78125h-371.003906c-2.449219 0-2.75-3.5625-.332031-3.972657zm0 0" fill="#b3e5fc"/><path d="m342.230469 492.125c-21.476563-10.90625-45.386719-16.132812-69.457031-15.175781l-11.71875.464843c17.78125 1.605469 35.15625 6.574219 51.175781 14.707032l39.128906 19.871094h21.644531c2.105469 0 2.78125-2.832032.90625-3.78125zm0 0" fill="#81d4fa"/><path d="m323.316406 404.453125-15.222656.710937 16.511719-117.792968c.832031-5.925782-1.941407-11.78125-7.054688-14.894532l-88.328125-53.777343 7.644532-34.347657-44.179688-16.902343-9.980469 44.832031c-1.394531 6.269531 1.359375 12.734375 6.84375 16.074219l103.976563 64.617187-17.65625 125.933594c-.621094 4.417969.761718 8.886719 3.769531 12.183594 3.003906 3.300781 7.324219 5.089844 11.785156 4.882812l33.289063-1.554687c8.273437-.382813 14.667968-7.40625 14.28125-15.679688-.382813-8.273437-7.402344-14.671875-15.679688-14.285156zm0 0" fill="#607d8b"/><path d="m283.617188 1.492188c-12.984376-4.699219-27.316407 2.019531-32.011719 15.003906-4.695313 12.984375 2.023437 27.320312 15.007812 32.015625 12.984375 4.695312 27.316407-2.023438 32.011719-15.007813s-2.023438-27.316406-15.007812-32.011718zm0 0" fill="#ffab91"/><path d="m235.726562 218.109375-53.199218-19.238281c-1.78125-.644532-2.703125-2.609375-2.058594-4.390625l46.445312-128.433594c5.636719-15.578125 22.832032-23.640625 38.414063-18.007813 15.582031 5.632813 23.644531 22.832032 18.011719 38.414063zm0 0" fill="#f06292"/><path d="m265.328125 48.039062c-5.140625-1.859374-10.457031-2.21875-15.472656-1.316406 6.664062 7.925782 9.046875 19.089844 5.269531 29.527344l-47.609375 131.65625 28.210937 10.203125 47.613282-131.65625c5.632812-15.582031-2.429688-32.78125-18.011719-38.414063zm0 0" fill="#ec407a"/><path d="m281.582031 169.902344c-2.90625-2.949219-7.65625-2.980469-10.605469-.070313l-176.898437 174.527344c-2.945313 2.910156-2.976563 7.660156-.070313 10.605469 1.46875 1.488281 3.402344 2.234375 5.339844 2.234375 1.902344 0 3.804688-.71875 5.265625-2.164063l176.898438-174.527344c2.949219-2.90625 2.980469-7.65625.070312-10.605468zm0 0" fill="#455a64"/><path d="m268.132812 185.914062-60.441406-58.035156c-.800781-.769531-.824218-2.042968-.050781-2.835937l45.578125-46.964844c5.625-5.796875 6.007812-15.105469.484375-20.996094-5.898437-6.292969-15.785156-6.316406-21.71875-.199219l-57.773437 59.53125c-5.789063 5.964844-5.621094 15.507813.375 21.265626l73.074218 70.167968c6.148438 5.902344 16.023438 5.527344 21.695313-.964844 5.316406-6.082031 4.601562-15.375-1.222657-20.96875zm0 0" fill="#fdd835"/><path d="m511.4375 412.675781c-1.574219-3.832031-5.953125-5.664062-9.785156-4.09375l-15.6875 6.4375c-11.082032 4.542969-22.765625 7.132813-34.730469 7.6875l-292.554687 13.640625c-4.136719.191406-7.335938 3.699219-7.144532 7.839844.1875 4.019531 3.503906 7.148438 7.488282 7.148438.117187 0 .234374 0 .355468-.007813l292.550782-13.636719c13.6875-.636718 27.054687-3.597656 39.726562-8.796875l15.6875-6.433593c3.832031-1.570313 5.664062-5.953126 4.09375-9.785157zm0 0" fill="#f06292"/></svg>