<?xml version="1.0" encoding="iso-8859-1"?>
<!-- Generator: Adobe Illustrator 19.0.0, SVG Export Plug-In . SVG Version: 6.00 Build 0)  -->
<svg version="1.1" id="Capa_1" xmlns="http://www.w3.org/2000/svg" xmlns:xlink="http://www.w3.org/1999/xlink" x="0px" y="0px"
	 viewBox="0 0 512 512" style="enable-background:new 0 0 512 512;" xml:space="preserve">
<rect x="40.689" y="84.902" style="fill:#5A6B96;" width="39.012" height="107.922"/>
<path style="fill:#EFEFEF;" d="M152.437,181.951l-0.01-2.008V86.96c0-25.37,7.488-49.899,21.656-70.934
	c3.372-5.006,8.99-7.994,15.028-7.994c6.038,0,11.655,2.989,15.028,7.993c7.038,10.457,12.462,21.844,16.117,33.847
	c3.675,12.031,5.539,24.51,5.539,37.088v94.991H152.437z"/>
<path style="fill:#6FD2F7;" d="M222.78,255.819c0-8.727-3.395-16.93-9.561-23.096c-6.172-6.172-14.378-9.571-23.106-9.571
	c-18.013,0-32.668,14.654-32.668,32.668h-4.016v-77.884h73.367v77.884H222.78z"/>
<path style="fill:#5A6B96;" d="M190.113,324.076c-20.227,0-36.683-16.46-36.683-36.693v-31.563
	c0-20.227,16.456-36.683,36.683-36.683c9.8,0,19.014,3.817,25.945,10.748c6.924,6.924,10.738,16.135,10.738,25.935v31.563
	C226.796,307.616,210.341,324.076,190.113,324.076z"/>
<path style="fill:#6FD2F7;" d="M153.439,365.267l-0.01-2.008v-75.876h4.016c0,18.018,14.654,32.678,32.668,32.678
	s32.668-14.659,32.668-32.678h4.016v77.884L153.439,365.267L153.439,365.267z"/>
<g>
	<rect x="152.425" y="361.251" style="fill:#EFEFEF;" width="73.367" height="142.717"/>
	<rect x="284.19" y="361.251" style="fill:#EFEFEF;" width="73.367" height="142.717"/>
</g>
<path style="fill:#6FD2F7;" d="M285.204,365.267l-0.01-2.008v-75.876h4.016c0,18.018,14.654,32.678,32.668,32.678
	s32.668-14.659,32.668-32.678h4.016v77.884L285.204,365.267L285.204,365.267z"/>
<path style="fill:#5A6B96;" d="M321.877,324.076c-20.227,0-36.683-16.46-36.683-36.693v-31.563
	c0-20.227,16.456-36.683,36.683-36.683c9.815,0,19.027,3.818,25.937,10.75c6.928,6.906,10.746,16.118,10.746,25.933v31.563
	C358.561,307.616,342.105,324.076,321.877,324.076z"/>
<path style="fill:#6FD2F7;" d="M354.545,255.819c0-8.741-3.398-16.942-9.569-23.093c-6.156-6.175-14.357-9.574-23.098-9.574
	c-18.013,0-32.668,14.654-32.668,32.668h-4.016v-77.884h73.367v77.884H354.545z"/>
<path style="fill:#EFEFEF;" d="M285.204,181.951l-0.01-2.008V86.96c0-25.37,7.488-49.899,21.656-70.934
	c3.373-5.006,8.99-7.994,15.028-7.994s11.655,2.989,15.028,7.993c7.031,10.447,12.458,21.833,16.127,33.845
	c3.669,12.045,5.529,24.524,5.529,37.09v94.991H285.204z"/>
<rect x="432.299" y="84.902" style="fill:#5A6B96;" width="39.012" height="107.922"/>
<path d="M155.437,512h69.351c5.545,0,10.039-4.495,10.039-10.039V287.383v-31.563V86.96c0-13.374-1.982-26.642-5.887-39.428
	c-3.888-12.765-9.654-24.874-17.139-35.994C206.933,4.313,198.826,0,190.113,0c-8.713,0-16.821,4.313-21.689,11.539
	c-15.064,22.366-23.026,48.446-23.026,75.421v168.86v31.563v214.578C145.398,507.505,149.893,512,155.437,512z M165.476,255.819
	c0-13.584,11.052-24.636,24.636-24.636c6.583,0,12.771,2.564,17.426,7.219c4.649,4.649,7.21,10.834,7.21,17.417v31.563
	c0,13.59-11.052,24.646-24.636,24.646c-13.584,0-24.636-11.056-24.636-24.646L165.476,255.819L165.476,255.819z M190.113,211.105
	c-9.099,0-17.567,2.739-24.636,7.424v-28.547h49.272v28.508C207.502,213.687,199.006,211.105,190.113,211.105z M190.113,332.107
	c9.099,0,17.567-2.739,24.636-7.426v28.538h-49.272v-28.538C172.546,329.369,181.014,332.107,190.113,332.107z M165.476,491.922
	V373.298h49.272v118.623H165.476z M185.077,22.756c1.628-2.416,4.064-2.677,5.036-2.677s3.408,0.261,5.035,2.675
	c6.371,9.464,11.278,19.769,14.588,30.637c3.327,10.891,5.014,22.186,5.014,33.57v82.944h-49.272V86.96
	C165.476,63.997,172.255,41.795,185.077,22.756z"/>
<path d="M287.202,512h69.351c5.545,0,10.039-4.495,10.039-10.039V287.383v-31.563V86.96c0-7.984-0.716-16.022-2.129-23.89
	c-0.981-5.457-6.198-9.087-11.656-8.108s-9.087,6.198-8.108,11.656c1.204,6.701,1.813,13.545,1.813,20.342v82.944H297.24V86.96
	c0-22.964,6.777-45.164,19.6-64.204c1.63-2.416,4.066-2.677,5.038-2.677s3.408,0.261,5.037,2.677
	c3.098,4.599,9.337,5.815,13.935,2.717c4.599-3.098,5.815-9.337,2.717-13.935C338.698,4.313,330.59,0,321.877,0
	s-16.821,4.313-21.689,11.539c-15.064,22.366-23.026,48.446-23.026,75.421v168.86v31.563v214.578
	C277.163,507.505,281.657,512,287.202,512z M346.514,287.383c0,13.59-11.052,24.646-24.636,24.646s-24.636-11.056-24.636-24.646
	v-31.563c0-13.584,11.052-24.636,24.636-24.636c6.591,0,12.772,2.56,17.428,7.23c4.648,4.634,7.208,10.815,7.208,17.406
	L346.514,287.383L346.514,287.383z M321.877,332.107c9.099,0,17.567-2.739,24.636-7.426v28.538h-49.272v-28.538
	C304.311,329.369,312.779,332.107,321.877,332.107z M297.241,491.922V373.298h49.272v118.623H297.241z M346.514,189.982v28.507
	c-7.238-4.803-15.732-7.385-24.636-7.385c-9.099,0-17.567,2.739-24.636,7.424v-28.547H346.514z"/>
<path d="M422.35,200.855h19.416V450.67h-13.091c-5.545,0-10.039,4.495-10.039,10.039c0,5.545,4.495,10.039,10.039,10.039h13.091
	v31.212c0,5.545,4.495,10.039,10.039,10.039s10.039-4.495,10.039-10.039v-31.212h13.081c5.545,0,10.039-4.495,10.039-10.039
	c0-5.545-4.495-10.039-10.039-10.039h-13.081V200.855h19.406c5.545,0,10.039-4.495,10.039-10.039
	c0-5.545-4.495-10.039-10.039-10.039h-1.907V86.91c0-5.545-4.495-10.039-10.039-10.039h-3.236
	c6.08-17.346,13.727-40.775,13.727-48.881C479.794,12.556,467.238,0,451.805,0c-15.439,0-27.999,12.556-27.999,27.989
	c0,8.106,7.652,31.534,13.735,48.881h-3.234c-5.545,0-10.039,4.495-10.039,10.039v93.867h-1.917
	c-5.545,0-10.039,4.495-10.039,10.039C412.311,196.36,416.805,200.855,422.35,200.855z M451.805,20.078
	c4.357,0,7.902,3.54,7.911,7.895c-0.096,3.326-3.451,14.835-7.914,28.394c-4.469-13.568-7.828-25.081-7.918-28.378
	C443.884,23.627,447.437,20.078,451.805,20.078z M444.346,96.949h14.918v83.827h-14.918V96.949z"/>
<path d="M30.75,200.855h19.406V450.67H37.075c-5.545,0-10.039,4.495-10.039,10.039c0,5.545,4.495,10.039,10.039,10.039h13.081
	v31.212c0,5.545,4.495,10.039,10.039,10.039s10.039-4.495,10.039-10.039v-31.212h13.091c5.545,0,10.039-4.495,10.039-10.039
	c0-5.545-4.495-10.039-10.039-10.039H70.234V200.855H89.65c5.545,0,10.039-4.495,10.039-10.039c0-5.545-4.495-10.039-10.039-10.039
	h-1.917V86.91c0-5.545-4.495-10.039-10.039-10.039H74.46c6.084-17.347,13.735-40.775,13.735-48.881C88.195,12.556,75.634,0,60.195,0
	C44.762,0,32.206,12.556,32.206,27.989c0,8.106,7.647,31.535,13.727,48.881h-3.236c-5.545,0-10.039,4.495-10.039,10.039v93.867
	H30.75c-5.545,0-10.039,4.495-10.039,10.039C20.711,196.36,25.205,200.855,30.75,200.855z M60.195,20.078
	c4.362,0,7.912,3.54,7.921,7.895c-0.096,3.326-3.452,14.836-7.919,28.394c-4.466-13.567-7.823-25.079-7.913-28.378
	C52.284,23.627,55.833,20.078,60.195,20.078z M52.736,96.949h7.458h0.001h7.459v83.827H52.736V96.949z"/>
<path d="M348.361,48.69c12.919,0,12.941-20.078,0-20.078C335.441,28.612,335.42,48.69,348.361,48.69z"/>
<g>
</g>
<g>
</g>
<g>
</g>
<g>
</g>
<g>
</g>
<g>
</g>
<g>
</g>
<g>
</g>
<g>
</g>
<g>
</g>
<g>
</g>
<g>
</g>
<g>
</g>
<g>
</g>
<g>
</g>
</svg>
